<?xml version="1.0" standalone="no"?><!DOCTYPE svg PUBLIC "-//W3C//DTD SVG 1.1//EN" "http://www.w3.org/Graphics/SVG/1.1/DTD/svg11.dtd"><svg t="1531187761657" class="icon" style="" viewBox="0 0 1024 1024" version="1.1" xmlns="http://www.w3.org/2000/svg" p-id="4620" xmlns:xlink="http://www.w3.org/1999/xlink" width="200" height="200"><defs><style type="text/css"></style></defs><path d="M717.6 333.3c-14.2 3.7-28.7-4.5-32.5-18.2l-11.3-43.3c-23.8-86-105-137.1-197.2-113.3-93.1 24.2-133.8 108.5-110.4 193l17.9 77.8c3.8 13.7-4.6 27.8-18.8 31.4-14.2 3.7-28.7-4.5-32.5-18.2L315 364.9c-31-112 26.5-224.5 147.9-256 120.9-31.3 230.7 35.7 262.2 149.6l11.3 43.3c3.8 13.8-4.6 27.8-18.8 31.5z m41.3 591.6H281.3c-58.5 0-106.2-46.1-106.2-102.7V513.9c0-56.7 47.6-102.7 106.2-102.7h477.6c58.6 0 106.1 46.1 106.1 102.7v308.2c0 56.7-47.5 102.8-106.1 102.8z m53.1-411c0-28.3-23.8-51.4-53.1-51.4H281.3c-29.2 0-53.1 23-53.1 51.4v308.2c0 28.3 23.8 51.4 53.1 51.4h477.6c29.3 0 53.1-23.1 53.1-51.4V513.9zM520.1 668c-29.3 0-53.1-23-53.1-51.4s23.8-51.4 53.1-51.4 53.1 23 53.1 51.4-23.8 51.4-53.1 51.4z m0 102.8c-14.7 0-26.5-11.5-26.5-25.7V642.3c0-14.2 11.9-25.7 26.5-25.7s26.5 11.5 26.5 25.7V745c0 14.3-11.8 25.8-26.5 25.8z m0 0" p-id="4621"></path></svg>