<?xml version="1.0" standalone="no"?><!DOCTYPE svg PUBLIC "-//W3C//DTD SVG 1.1//EN" "http://www.w3.org/Graphics/SVG/1.1/DTD/svg11.dtd"><svg t="1531187614755" class="icon" style="" viewBox="0 0 1024 1024" version="1.1" xmlns="http://www.w3.org/2000/svg" p-id="2840" xmlns:xlink="http://www.w3.org/1999/xlink" width="200" height="200"><defs><style type="text/css"></style></defs><path d="M574 614.1c0 64.5 52.4 116.8 117 116.8s117-52.3 117-116.8-52.4-116.8-117-116.8c-64.7 0.1-117 52.3-117 116.8z m0 0M699.3 739.2C574 739.2 482.1 839.3 473.7 956h451.2c0-133.4-100.3-216.8-225.6-216.8z m0 0" p-id="2841" fill="#4e4e4e"></path><path d="M612.2 141.1H671c26.7 0 49.5 21.8 49.5 48.5v250h32.4v-250c0-44.6-37.2-80.8-81.9-80.8h-58.8c-5.8 0-11.1 3.1-14 8.1-2.9 5-2.9 11.2 0 16.2 2.8 4.9 8.2 8 14 8M141.4 732.5V193.1c0-26.9 23.6-52 50.4-52h59.3c5.8 0 11.1-3.1 14-8.1 2.9-5 2.9-11.2 0-16.2s-8.2-8.1-14-8.1h-59.3c-44.7 0-82.8 39.8-82.8 84.4v539.2c0 44.6 36.3 80.8 81 80.9h282.6V781H190c-26.8-0.1-48.6-21.8-48.6-48.5" p-id="2842" fill="#4e4e4e"></path><path d="M638.7 383.9c0 19.3-15.7 35-35 35H269.2c-12.5 0-24.1-6.7-30.4-17.5a34.77 34.77 0 0 1 0-35c6.3-10.8 17.8-17.5 30.4-17.5h334.5c19.3 0 35 15.6 35 35z m0 0M590.4 207.1h-62.2v-78.7c0-15.3-6.1-30-17-40.9-10.9-10.8-25.6-16.9-40.9-16.9h-78.1c-15.3 0-30.1 6.1-40.9 16.9-10.9 10.8-16.9 25.5-16.9 40.9V207h-62.2c-20.1 0-38.1 16.2-38.1 36.2s18 38 38.1 38h318.2c20 0 38.1-17.9 38.1-38s-18-36.1-38.1-36.1z m-159.1-31.2c-21.2-0.1-38.3-17.2-38.3-38.3 0-21.1 17.2-38.3 38.3-38.3 21.1 0 38.4 17.2 38.4 38.3 0 21.1-17.2 38.3-38.4 38.3z" p-id="2843" fill="#4e4e4e"></path></svg>