<?xml version="1.0" standalone="no"?><!DOCTYPE svg PUBLIC "-//W3C//DTD SVG 1.1//EN" "http://www.w3.org/Graphics/SVG/1.1/DTD/svg11.dtd"><svg t="1531187704114" class="icon" style="" viewBox="0 0 1024 1024" version="1.1" xmlns="http://www.w3.org/2000/svg" p-id="3573" xmlns:xlink="http://www.w3.org/1999/xlink" width="200" height="200"><defs><style type="text/css"></style></defs><path d="M394.7 320.4c0 45.3 36.7 82 82 82s82-36.7 82-82-36.7-82-82-82-82 36.7-82 82z m0 0" p-id="3574" fill="#4e4e4e"></path><path d="M526.6 431.7c42.5-19.1 72.2-61.7 72.2-111.2 0-67.4-54.8-122.2-122.2-122.2s-122.2 54.8-122.2 122.2c0 49.5 29.7 92 72.1 111.2 16.1-4.1 32.7-7 50-7 17.5 0 34.1 2.8 50.1 7z m0 0" p-id="3575" fill="#4e4e4e"></path><path d="M514 606.6H316c10-79.8 78.2-141.8 160.7-141.8 42.3 0 80.7 16.4 109.5 43.1 8.8-6.1 17.4-12.5 26.5-17.3l8.4-4.4c-25.5-26.3-57.9-45.3-94.5-54.7-15.3 6.9-32.1 11-50 11-17.8 0-34.7-4.1-50-11-87.1 22.4-152 100.9-152 195.1 0 11.1 9 20.1 20.1 20.1l193.1 3.7c-0.1 0.1 23.7-38.7 26.2-43.8z m0 0" p-id="3576" fill="#4e4e4e"></path><path d="M526.6 431.7c-16-4.1-32.6-7-50-7-17.3 0-33.9 2.9-50 7 15.3 6.9 32.2 11 50 11 17.9-0.1 34.7-4.2 50-11z m0 0M764.8 681.1c-26.3-12.8-58-1.8-70.8 24.5-12.8 26.3-1.8 58 24.5 70.8 4.8 2.4 9.8 3.1 14.9 3.9 22.5 3.6 45.5-6.8 56-28.3 9.8-20.4 5.2-43.7-9.5-59.3-4.3-4.6-9.2-8.6-15.1-11.6z m0 0" p-id="3577" fill="#4e4e4e"></path><path d="M909.7 749.3c17.4-4.4 31.7-8.6 43-12.5 0.3-11.6-0.1-23.5-1.8-35.3-0.1-1-0.2-2-0.3-3.1-11.7-2.8-26.3-5.4-44-7.8-2.3-10.1-5.5-19.8-9.5-29.1 12.8-12.4 23.1-23.2 30.8-32.3-6.1-11.4-13.2-22.2-21.1-32.1-11.5 3.4-25.6 8.5-42.1 15.3-6.9-7.5-14.6-14.3-22.8-20.5 4.9-17.2 8.4-31.7 10.6-43.5-10.9-6.7-22.4-12.6-34.2-17.4-1.2 1.4-2.8 3.2-4.1 4.6-7.3 8.1-15.4 17.7-24.7 29.6-3.1-0.9-6.5-1.2-9.6-2-6.7-1.7-13.4-3.4-20.2-4.3-4.4-17.3-8.6-31.6-12.6-42.9-11.6-0.4-23.4 0.1-35.2 1.7-1.2 0.1-2.2 0.3-3.2 0.4-2.6 11.6-5.4 26.3-7.8 44-9.4 2.1-18.4 5.2-27 8.8-0.8 0.3-1.5 0.3-2.1 0.6-12.4-12.9-23.1-23.1-32.3-30.9-6.8 3.6-12.8 8.2-19.2 12.5-4.3 3-8.9 5.3-13 8.5 3.4 11.5 8.5 25.5 15.3 42-7.1 6.7-13.7 14.1-19.5 21.8h-4.5c-15.5-4.3-28.9-7.6-39.8-9.6-1.9 3-3.1 6.5-4.8 9.6-4.5 8.1-9.1 16.2-12.5 24.7 4.4 4.1 9.4 8.6 15.1 13.4 5.7 4.8 12.1 9.9 19.1 15.3-2.8 9.7-5.1 19.8-6.2 30-17.3 4.3-31.7 8.6-43 12.5-0.4 11.6 0.2 23.4 1.7 35.3 0.2 1 0.3 2.1 0.5 3.1 11.6 2.8 26.3 5.3 44 7.8 1.2 5.1 3.2 9.7 4.8 14.6 1.6 4.8 2.7 9.8 4.6 14.4-7.4 7.3-13.8 13.8-19.7 20-4.1 4.4-8 8.6-11.3 12.3 6.1 11.5 13.1 22.2 21.1 32.3 11.4-3.4 25.6-8.6 42.1-15.4 6.9 7.5 14.6 14.3 22.8 20.5-5 17.1-8.5 31.7-10.6 43.4 10.8 6.8 22.3 12.6 34.2 17.3 8.3-8.6 17.8-20 28.7-34.2 9.7 3 19.7 5.1 30 6.3 4.4 17.3 8.6 31.6 12.5 42.9 11.6 0.4 23.4-0.2 35.3-1.7 1-0.1 2-0.2 3.1-0.4 2.7-11.7 5.3-26.3 7.7-44.1 10.1-2.3 19.8-5.5 29.1-9.5 12.4 12.9 23.3 23.2 32.4 30.9 11.5-6.1 22.2-13.1 32.1-21-3.3-11.5-8.4-25.5-15.3-42.1 7.5-6.9 14.3-14.6 20.4-22.7 17.2 4.9 31.7 8.4 43.5 10.6 6.8-10.8 12.7-22.3 17.4-34.4-8.8-8.2-20.1-17.8-34.3-28.8 3.2-9.1 5.3-19.1 6.4-29.4z m-154.2 102c-39 5.1-75.8-8.9-101.9-34.5-10.1-9.9-18.4-21.4-24.7-34.4-5.6-11.5-9.9-23.9-11.7-37.3-3.9-29.6 3.6-57.9 18.4-81.5 12.2-19.3 29.5-34.9 50.5-45.1 11.6-5.5 23.9-9.9 37.3-11.6 19.8-2.6 38.8 0.1 56.4 6.2 12.3 4.4 24 10.1 34.3 17.9 25.2 19.2 43.1 48.1 47.5 81.9 9 67.7-38.6 129.6-106.1 138.4z m0 0" p-id="3578" fill="#4e4e4e"></path><path d="M433.9 727.1H246.5c-41.6 0-75.4-33.8-75.4-75.4V210.3c0-41.6 33.8-75.4 75.4-75.4H688c41.6 0 75.4 33.8 75.4 75.4V409c0 2 39.2 5.1 53.8 9.4V188.7C817.2 129.2 769 81 709.5 81H225c-59.5 0-107.7 48.2-107.7 107.7v484.6c0 59.5 48.2 107.7 107.7 107.7h217.1c-3.8-14.7-6.7-53.9-8.2-53.9z m0 0" p-id="3579" fill="#4e4e4e"></path></svg>