<?xml version="1.0" standalone="no"?><!DOCTYPE svg PUBLIC "-//W3C//DTD SVG 1.1//EN" "http://www.w3.org/Graphics/SVG/1.1/DTD/svg11.dtd"><svg t="1531187722988" class="icon" style="" viewBox="0 0 1024 1024" version="1.1" xmlns="http://www.w3.org/2000/svg" p-id="3885" xmlns:xlink="http://www.w3.org/1999/xlink" width="200" height="200"><defs><style type="text/css"></style></defs><path d="M364.7 802.4h-0.4l0.4 1.9v-1.9z m0 74v-69.6l-0.3 1.4c-1.5 7.1-9.2 11.6-19.5 11.6H126.1c-10.3 0-17.9-4.5-19.4-11.5l-0.3-1.4v69.6c-0.8 3.7 0 7.3 2.2 10.2 3.4 4.4 9.7 7 17.4 7h218.9c7.7 0 14.1-2.5 17.5-7 2.3-3 3.1-6.7 2.3-10.3z m-205.9 15.8c-18.4 0-33.7-16.3-33.7-35.8 0-19.5 15.3-35.8 33.7-35.8 18.4 0 33.7 16.3 33.7 35.8 0 19.5-15.3 35.8-33.7 35.8z m100.2-8.6h-29.6v-52.9H259v52.9z m39 0.4h-29.4v-53.4H298V884z m41.2-0.8h-30v-52.3h30v52.3z m0 0" p-id="3886" fill="#4e4e4e"></path><path d="M344.9 813.4H126.1c-8.4 0-15.1-2.9-18.2-8.1-2.2-3.5-2.4-7.9-0.5-12.2l12-28.6 7.1-16.9 1.8-4.2h214.6l1.8 4.2c5.7 13.6 12 28.6 19.1 45.4 1.8 4.3 1.6 8.6-0.5 12.2-3.2 5.1-10 8.2-18.4 8.2z m-165.6 44.3v-0.7c0-11.5-9.1-21.1-19.9-21.1l-0.7-0.1c-10.8 0.3-19.5 9.8-19.5 21.3 0 11.8 9 21.3 20.1 21.3 10.8 0 19.6-9.1 20.1-20.5l-0.1-0.2z m-20.1-31.4c15.4 0 27.9 13.3 27.9 29.6s-12.5 29.6-27.9 29.6-27.9-13.3-27.9-29.6 12.5-29.6 27.9-29.6z m0 0" p-id="3887" fill="#4e4e4e"></path><path d="M159.2 826c15.5 0 28.2 13.4 28.2 29.9s-12.7 29.9-28.2 29.9-28.2-13.4-28.2-29.9 12.6-29.9 28.2-29.9z m27.9 29.9c0-16.3-12.5-29.6-27.9-29.6s-27.9 13.3-27.9 29.6 12.5 29.6 27.9 29.6 27.9-13.3 27.9-29.6z m43.8-22.2h26.6v6.4h-26.6v-6.4z m0 7h26.6v6.1h-26.6v-6.1z m0 6.6h26.6v6.1h-26.6v-6.1z m0 6.8h26.6v6.1h-26.6v-6.1z m0 6.7h26.6v6.1h-26.6v-6.1z m0 6.9h26.6v6.1h-26.6v-6.1z m0 6.7h26.6v6.1h-26.6v-6.1z m39-40.6h26.6v6.4h-26.6v-6.4z m0 7h26.6v6.1h-26.6v-6.1z m0 6.6h26.6v6.1h-26.6v-6.1z m0 6.8h26.6v6.1h-26.6v-6.1z m0 6.7h26.6v6.1h-26.6v-6.1z m0 6.8h26.6v6.1h-26.6v-6.1z m0 6.8h26.6v6.1h-26.6v-6.1z m40.8-40.9h26.6v6.4h-26.6v-6.4z m0 7h26.6v6.1h-26.6v-6.1z m0 6.6h26.6v6.1h-26.6v-6.1z m0 6.8h26.6v6.1h-26.6V854z m0 6.7h26.6v6.1h-26.6v-6.1z m0 6.9h26.6v6.1h-26.6v-6.1z m0 6.7h26.6v6.1h-26.6v-6.1z m-161-674.2h-37.8v-28.4h37.8v-6.6h-37.8v-28.4h77v-27.9H102v184.9h86.8V274h-39.1v-73.9z m-22.1 38.7h-15.8V230h15.8v8.8z m0-16h-15.8V214h15.8v8.8z m-9.9-44.3h32v15.9h-32v-15.9z m0-35.5h32v15.8h-32V143z m43.5 3.7v117.6h197.1V146.7H161.2z m185.5 106H172.8v-94.4h173.9v94.4z m-53.8 18h-66.4V284h-13.2v9.7H306V284h-13.2v-13.3h0.1z m393.9 135.4c24.8-10.5 51.5-16 78.5-15.9 2.7 0 5.4 0.1 8 0.1 12.8-32.3 16-70.4 9.6-107.5-14.8-85.1-95.1-141.9-179.4-126.9-84.2 15-155.4 80.5-140.4 165.5 3.2 18.4 12.1 47 22.6 67.7l-153 220.7c-5.6 8.1-8.9 22.7-7.1 32.6l6.7 37.8c-6.3-36.4 1.7 13.1 6.7 13l50.4 0.7c9.7-1.7 21.9-9.9 27.3-18.2l60.5-94.6 0.6-0.6 52.9 4.2 70.7-110.8c0.2 0 0.5 0.1 0.7 0.1 6.3-8.7 13.3-16.9 20.9-24.6 18.1-18.5 39.8-33.2 63.8-43.3z m-320.9 227l-7.5 3.2 0.8-8.2 146.6-212.8 8.8 8.2-148.7 209.6z m222.7-391.5c23.2-33.3 68.8-41.6 101.8-18.1 33.1 23.5 41.2 69.6 18 102.9-23.1 33.3-46.8 9.8-79.9-13.6-33-23.5-63.1-37.7-39.9-71.2z m174.7 189.5c-88.8 0-160.7 71.9-160.7 160.7 0 88.8 71.9 160.7 160.7 160.7 88.8 0 160.7-71.9 160.7-160.7 0.1-88.8-71.9-160.7-160.7-160.7z m92.9 226.7c0 24-46 29.5-89.1 29.5-43.2 0-89.7-5.5-89.7-29.5v-6.7c0-17.7 31.8-35.6 58.8-45.3 2-0.7 11.4-5.8 6.1-19.5-13.4-13.7-23.5-35.9-23.5-57.8 0-33.5 22.1-51 48.1-51 25.9 0 48.2 17.5 48.2 51 0 21.8-10.2 43.9-23.5 57.7h0.1c-5.1 15.6 3 19.3 4.3 19.6 28.4 9.4 60.4 27.2 60.4 45.3l-0.2 6.7z m-681-331.1h29.9v46.6h-29.9v-46.6z m-0.3 67.3h29.9v46.6h-29.9V394zM204 494.1h58.6v26.4H204v-26.4z m0 0" p-id="3888" fill="#4e4e4e"></path><path d="M174.9 462.2h29.9V557h-29.9v-94.8z m-0.3 122.3h29.9v46.6h-29.9v-46.6z m-0.2 67.4h29.9v46.6h-29.9v-46.6z m119.5-157.8H360v26.3h-66.1v-26.3z m0 0" p-id="3889" fill="#4e4e4e"></path></svg>