<?xml version="1.0" standalone="no"?><!DOCTYPE svg PUBLIC "-//W3C//DTD SVG 1.1//EN" "http://www.w3.org/Graphics/SVG/1.1/DTD/svg11.dtd"><svg t="1531188825141" class="icon" style="" viewBox="0 0 1024 1024" version="1.1" xmlns="http://www.w3.org/2000/svg" p-id="15020" xmlns:xlink="http://www.w3.org/1999/xlink" width="200" height="200"><defs><style type="text/css"></style></defs><path d="M433.1 310c-30.9 0-55.9 24.7-55.9 55 0 30.4 25 55 55.9 55s55.9-24.6 55.9-55c0-30.3-25-55-55.9-55z m195.5 263.7l15.8-15.5c17.5-17.2 17.5-45.1 0-62.2l-27.3-26.9c8.8-15.1 15.7-31.2 20.5-48.4h29.5c24.7 0 44.7-19.7 44.7-44v-22c0-24.3-20-44.1-44.7-44.1H638c-4.6-16.9-11.2-33-19.8-48l26.2-25.8c17.5-17.2 17.5-45.1 0-62.2L628.6 159c-17.5-17.2-45.8-17.2-63.2 0l-25.7 25.3c-15.7-9-32.7-16-50.7-20.9v-29.6c0-24.3-20-44-44.7-44H422c-24.7 0-44.7 19.7-44.7 44v29.6c-18 4.8-34.9 11.9-50.7 20.9L300.9 159c-17.4-17.2-45.8-17.2-63.2 0l-15.8 15.6c-17.5 17.1-17.5 45 0 62.2l26.2 25.8c-8.5 15-15.2 31.1-19.8 48h-29.2c-24.7 0-44.7 19.7-44.7 44v22c0 24.3 20 44 44.7 44h29.5c4.8 17.1 11.7 33.3 20.5 48.4l-27.3 27c-17.4 17.2-17.4 45.1 0 62.2l15.8 15.5c17.4 17.2 45.8 17.2 63.2 0l27.4-27c15.3 8.5 31.7 15.2 48.9 19.8v28.2c0 24.3 20 44 44.7 44h22.3c24.7 0 44.7-19.7 44.7-44v-28.2c17.3-4.6 33.7-11.3 48.9-19.8l27.5 27c17.6 17.2 45.9 17.2 63.4 0z m-195.5-86.3c-67.9 0-123-54.2-123-121 0-66.9 55.1-121.1 123-121.1S556 299.5 556 366.4c0 66.8-55 121-122.9 121z m393.6 236.5h-14.1c-2.2-8.2-5.4-16-9.6-23.3l12.7-12.5c8.5-8.3 8.5-21.8 0-30.2l-7.7-7.6c-8.5-8.3-22.2-8.3-30.7 0l-12.4 12.3c-7.6-4.4-15.9-7.8-24.5-10.1v-14.3c0-11.8-9.7-21.3-21.7-21.3h-10.8c-12 0-21.7 9.5-21.7 21.3v14.3c-8.7 2.3-16.9 5.8-24.6 10.1L649 650.3c-8.4-8.3-22.2-8.3-30.6 0l-7.7 7.6c-8.4 8.4-8.4 21.9 0 30.2l12.7 12.5c-4.1 7.3-7.3 15.1-9.6 23.3h-14.1c-12 0-21.7 9.5-21.7 21.3v10.6c0 11.8 9.7 21.3 21.7 21.3H614c2.3 8.3 5.7 16.2 9.9 23.5l-13.3 13c-8.4 8.3-8.4 21.8 0 30.2l7.7 7.5c8.5 8.4 22.2 8.4 30.6 0l13.4-13.1c7.4 4.1 15.3 7.4 23.7 9.6v13.7c0 11.8 9.7 21.3 21.7 21.3h10.9c12 0 21.7-9.6 21.7-21.3V848c8.3-2.2 16.3-5.5 23.7-9.6l13.3 13.1c8.5 8.4 22.2 8.4 30.7 0l7.7-7.5c8.5-8.4 8.5-21.9 0-30.2l-13.2-13c4.3-7.3 7.6-15.2 9.9-23.5h14.3c12 0 21.7-9.5 21.7-21.3v-10.6c0-12-9.7-21.5-21.7-21.5z m-113.5 85.7c-33 0-59.6-26.3-59.6-58.7s26.7-58.7 59.6-58.7c32.9 0 59.6 26.3 59.6 58.7s-26.7 58.7-59.6 58.7z m0-86c-15 0-27.1 12-27.1 26.7 0 14.8 12.1 26.7 27.1 26.7 15 0 27.1-11.9 27.1-26.7 0-14.8-12.1-26.7-27.1-26.7z m0 0" p-id="15021" fill="#4e4e4e"></path></svg>