<?xml version="1.0" standalone="no"?><!DOCTYPE svg PUBLIC "-//W3C//DTD SVG 1.1//EN" "http://www.w3.org/Graphics/SVG/1.1/DTD/svg11.dtd"><svg t="1531187691301" class="icon" style="" viewBox="0 0 1024 1024" version="1.1" xmlns="http://www.w3.org/2000/svg" p-id="3264" xmlns:xlink="http://www.w3.org/1999/xlink" width="200" height="200"><defs><style type="text/css"></style></defs><path d="M610.1 547.7c-43.7-16.4-87.4-21.8-136.5-21.8-180.2 0-344.1 120.2-398.7 300.4-5.5 10.9 5.5 21.8 16.4 27.3h5.5c10.9 0 16.4-5.5 21.8-16.4C162.2 678.8 309.7 569.6 479 569.6c43.7 0 81.9 5.5 120.2 21.8 10.9 5.5 21.8 0 27.3-10.9 0-16.4-5.5-27.3-16.4-32.8z m0 0" p-id="3265" fill="#4e4e4e"></path><path d="M888.7 482.2H713.9c-32.8 0-60.1 27.3-60.1 60.1v240.3c0 32.8 27.3 60.1 60.1 60.1h174.8c32.8 0 60.1-27.3 60.1-60.1V547.7c0-38.2-27.4-65.5-60.1-65.5zM905.1 788c0 10.9-10.9 21.8-21.8 21.8H708.4c-10.9 0-21.8-10.9-21.8-21.8V547.7c0-10.9 10.9-21.8 21.8-21.8h174.8c10.9 0 21.8 10.9 21.8 21.8V788z m0 0" p-id="3266" fill="#4e4e4e"></path><path d="M866.8 689.7H741.2c-5.5 0-10.9 5.5-10.9 10.9 0 5.5 5.5 10.9 10.9 10.9h125.6c5.5 0 10.9-5.5 10.9-10.9 0-10.9-5.4-10.9-10.9-10.9z m0 0M866.8 613.3h-65.5c-5.5 0-10.9 5.5-10.9 10.9 0 5.5 5.5 10.9 10.9 10.9h65.5c5.5 0 10.9-5.5 10.9-10.9 0-10.9-5.4-10.9-10.9-10.9z m0 0M315.2 301.9c0 108.6 88 196.6 196.6 196.6s196.6-88 196.6-196.6-88-196.6-196.6-196.6-196.6 88.1-196.6 196.6z m0 0" p-id="3267" fill="#4e4e4e"></path></svg>