<?xml version="1.0" encoding="utf-8"?>
<!-- Generator: Adobe Illustrator 22.0.0, SVG Export Plug-In . SVG Version: 6.00 Build 0)  -->
<svg version="1.1" id="图层_1" xmlns="http://www.w3.org/2000/svg" xmlns:xlink="http://www.w3.org/1999/xlink" x="0px" y="0px"
	 viewBox="0 0 200 200" style="enable-background:new 0 0 200 200;" xml:space="preserve">
<style type="text/css">
	.st0{fill:#E64B2C;}
</style>
<path class="st0" d="M66.9,130.4c1.7,1.7,4.3,1.7,6,0l27.3-27.3l27.3,27.3c1.7,1.7,4.3,1.7,6,0c1.7-1.7,1.7-4.3,0-6l-27.3-27.3
	l27.3-27.3c1.7-1.7,1.7-4.3,0-6c-1.7-1.7-4.3-1.7-6,0l-27.3,27.3L72.8,63.9c-1.7-1.7-4.3-1.7-6,0c-1.7,1.7-1.7,4.3,0,6l27.3,27.3
	l-27.3,27.3C65.2,126.1,65.2,128.7,66.9,130.4z M180.1,98.5c0-44.2-35.8-80-80-80c-44.2,0-80,35.8-80,80c0,44.2,35.8,80,80,80
	c18.1,0,34.7-6.2,48.2-16.3c0.5-0.6,0.9-1.4,0.9-2.3c0-2-1.6-3.6-3.6-3.6c-1,0-1.9,0.4-2.6,1.1h0c-12,8.8-26.8,14.1-42.8,14.1
	c-40,0-72.4-32.4-72.4-72.4s32.4-72.4,72.4-72.4S172.7,59,172.7,99c0,12.2-2.9,23.7-8.2,33.8v0c-0.1,0.3-0.2,0.7-0.2,1
	c0,2,1.6,3.6,3.6,3.6c1.5,0,2.8-1,3.3-2.3v0C176.8,124.2,180.1,111.7,180.1,98.5L180.1,98.5z"/>
</svg>
