<?xml version="1.0" standalone="no"?><!DOCTYPE svg PUBLIC "-//W3C//DTD SVG 1.1//EN" "http://www.w3.org/Graphics/SVG/1.1/DTD/svg11.dtd"><svg t="1531187747509" class="icon" style="" viewBox="0 0 1024 1024" version="1.1" xmlns="http://www.w3.org/2000/svg" p-id="4389" xmlns:xlink="http://www.w3.org/1999/xlink" width="200" height="200"><defs><style type="text/css"></style></defs><path d="M254 253.3v555c0 65.7 43.2 118.9 96.5 118.9h289.6c53.3 0 96.6-53.2 96.6-118.9v-555H254z m128.8 549c0 14.4-7.2 26.1-16.1 26.1h-16.2c-8.9 0-16.1-11.7-16.1-26.1V358.5c0-13.9 6.8-25 15.2-25.8h18c8.5 0.8 15.2 11.9 15.2 25.8v443.8z m144.9 0c0 14.4-7.2 26.1-16.1 26.1h-32.3c-8.9 0-16.1-11.7-16.1-26.1V358.5c0-13.9 6.8-25 15.2-25.8h34.1c8.5 0.8 15.2 11.9 15.2 25.8v443.8z m128.6-443.8v443.8c0 14.4-7.2 26.1-16.2 26.1H624c-8.9 0-16.1-11.7-16.1-26.1V358.5c0-13.9 6.8-25 15.2-25.8H641c8.6 0.7 15.3 11.9 15.3 25.8z m80.4-263.7H254c-17.8 0-32.2 17.8-32.2 39.6v19.8c0 21.9 14.4 39.6 32.2 39.6h482.7c17.8 0 32.2-17.7 32.2-39.6v-19.8c0-21.8-14.4-39.6-32.2-39.6z m0 0" fill="#E8320D" p-id="4390"></path></svg>