<?xml version="1.0" standalone="no"?><!DOCTYPE svg PUBLIC "-//W3C//DTD SVG 1.1//EN" "http://www.w3.org/Graphics/SVG/1.1/DTD/svg11.dtd"><svg t="1531187740518" class="icon" style="" viewBox="0 0 1024 1024" version="1.1" xmlns="http://www.w3.org/2000/svg" p-id="4273" xmlns:xlink="http://www.w3.org/1999/xlink" width="200" height="200"><defs><style type="text/css"></style></defs><path d="M304.3 773.2c16.7 1.2 33.7-3.9 47.3-15.1l4.6-1.5-144.7-144.8-1.4 4.6c-11.3 13.6-16.3 30.7-15.1 47.3l-51.4 160.8 160.7-51.3z m524.4-586.4l-47.4-47.4c-26.1-26.1-68.6-26.1-94.7 0l-45.9 45.9 142.1 142.1 45.9-45.9c26.1-26.1 26.1-68.6 0-94.7zM734 376.3L591.9 234.2 261.7 564.3l142.1 142.1L734 376.3z m0 0" fill="#4E84FE" p-id="4274"></path><path d="M100.1 868.1h835.8v59.7H100.1z" fill="#4E84FE" p-id="4275"></path></svg>