<?xml version="1.0" encoding="utf-8"?>
<!-- Generator: Adobe Illustrator 22.0.0, SVG Export Plug-In . SVG Version: 6.00 Build 0)  -->
<svg version="1.1" id="图层_1" xmlns="http://www.w3.org/2000/svg" xmlns:xlink="http://www.w3.org/1999/xlink" x="0px" y="0px"
	 viewBox="0 0 200 200" style="enable-background:new 0 0 200 200;" xml:space="preserve">
<style type="text/css">
	.st0{fill:#4E84FE;}
</style>
<path class="st0" d="M99.9,180.2c-44.1,0-80-35.9-80-80s35.9-80,80-80s80,35.9,80,80S144,180.2,99.9,180.2z M99.9,29.1
	c-39.2,0-71.1,31.9-71.1,71.1s31.9,71.1,71.1,71.1s71.1-31.9,71.1-71.1S139.1,29.1,99.9,29.1z"/>
<path class="st0" d="M85.8,131.9c-1.1,0-2.3-0.4-3.1-1.3l-26.4-26.4c-1.7-1.7-1.7-4.5,0-6.3c1.7-1.7,4.5-1.7,6.3,0l23.3,23.3
	l51.4-51.4c1.7-1.7,4.5-1.7,6.3,0c1.7,1.7,1.7,4.5,0,6.3L89,130.6C88.1,131.5,87,131.9,85.8,131.9L85.8,131.9z"/>
</svg>
