<?xml version="1.0" encoding="utf-8"?>
<!-- Generator: Adobe Illustrator 22.0.0, SVG Export Plug-In . SVG Version: 6.00 Build 0)  -->
<svg version="1.1" id="图层_1" xmlns="http://www.w3.org/2000/svg" xmlns:xlink="http://www.w3.org/1999/xlink" x="0px" y="0px"
	 viewBox="0 0 176 33" style="enable-background:new 0 0 176 33;" xml:space="preserve">
<style type="text/css">
	.st0{fill:#CD3D1A;}
	.st1{fill:#218CBD;}
	.st2{fill:#FFFFFF;}
	.st3{fill:#0F366B;}
	.st4{fill:#064E8B;}
</style>
<path class="st0" d="M57.2,0c0,0-23.3,4.9-45.9,4.9H7c3,0,7.1,1.6,9.7,3.6c1.9,1.5,3.1,2.3,7.8,5.5c1,0.7,2.2,1.4,3.4,2.1
	c0.1,0,0.3,0,0.4,0c10.9,0,15.6-1.2,15.6-1.2c2.3-0.5,5.5-1.7,8.1-4.9l6.4-7.9C59.3,1,58.9-0.5,57.2,0"/>
<path class="st1" d="M5.9,12.6c-1.4-1.4-3.2-3.3-4.3-4.5c1.9,2,6.1,6.4,12,12c7.4,7,13.8,11.6,13.8,11.6c1.9,1.1,5.2,1.6,7.6-0.7
	l5.7-5.9c1.3-1.1,1.4-2.7-0.3-3.5c0,0-7.1-2.6-12.5-5.5c-6.4,0-11.7,0-14.2,0C9.2,16.1,6.6,13.3,5.9,12.6"/>
<path class="st2" d="M16.7,8.5C14.1,6.5,10,4.9,7,4.9H1.3c-0.1,0-0.1,0-0.2,0c-0.4,0-0.8,0.2-1,0.6c0,0,0,0.1,0,0.1c0,0,0,0,0,0
	c0,0.2,0,0.4,0.1,0.7c0,0,0,0,0,0c0.1,0.2,0.2,0.4,0.4,0.6c0,0,0.4,0.4,1.1,1.2c1.1,1.2,2.9,3.1,4.3,4.5c0.7,0.7,3.3,3.5,7.8,3.5
	c2.5,0,7.8,0,14.2,0c-1.3-0.7-2.5-1.4-3.4-2.1C19.9,10.8,18.7,10,16.7,8.5"/>
<path class="st3" d="M16.7,8.5C14.1,6.5,10,4.9,7,4.9H1.3c-0.1,0-0.1,0-0.2,0c-0.4,0-0.8,0.2-1,0.6c0,0,0,0.1,0,0.1c0,0,0,0,0,0
	c0,0.2,0,0.4,0.1,0.7c0,0,0,0,0,0c0.1,0.2,0.2,0.4,0.4,0.6c0,0,0.4,0.4,1.1,1.2c1.1,1.2,2.9,3.1,4.3,4.5c0.7,0.7,3.3,3.5,7.8,3.5
	c2.5,0,7.8,0,14.2,0c-1.3-0.7-2.5-1.4-3.4-2.1C19.9,10.8,18.7,10,16.7,8.5"/>
<path class="st4" d="M66.2,28.5c-0.1-0.1-0.2-0.1-0.3-0.2c-0.6-0.5-1.1-0.9-1.5-1.1c-0.3,0.7-1,1.3-2.2,1.9
	c-0.1-0.2-0.2-0.3-0.3-0.5c1.2-0.5,1.9-1.1,2.1-1.9h-2v-0.5h2.1c0.1-0.3,0.1-0.7,0.1-1.2H63c-0.2,0.3-0.4,0.6-0.7,0.9
	c-0.1-0.1-0.2-0.2-0.3-0.3c0.6-0.6,1.1-1.3,1.3-2l0.4,0.1c-0.1,0.1-0.1,0.3-0.2,0.5c-0.1,0.2-0.1,0.3-0.1,0.4h2.9V25h-1.5
	c0,0.5,0,0.9-0.1,1.2h1.8v0.5h-2v0c0,0,0,0,0,0c0.1,0.1,0.2,0.1,0.3,0.2c0.5,0.3,1,0.7,1.6,1.1L66.2,28.5z M63.4,28.8h6.1V33H69
	v-0.4h-5.1V33h-0.5V28.8z M63.9,30.5H69v-1.2h-5.1V30.5z M63.9,32.1H69V31h-5.1V32.1z M67.1,24.4h3.3v3.5h-3.3V24.4z M67.5,27.5h2.4
	v-2.6h-2.4V27.5z"/>
<path class="st4" d="M80.6,31l0.4,0.3c-0.3,0.4-0.6,0.9-1.1,1.5c-0.1-0.1-0.2-0.2-0.4-0.4C79.8,32.1,80.2,31.6,80.6,31 M80,25.5h1.7
	v-0.7h-1.9v-0.4h1.9v-0.7h0.5v0.7h1.5v0.4h-1.5v0.7h1.4v0.4h-1.4v0.8h1.5v0.4h-1.5v0.6h-0.5v-0.6h-2.1v-0.4h2.1v-0.8H80V25.5z
	 M80.3,27.9h6.9v2.7h-7v-0.4h6.5v-0.7h-6.1V29h6.1v-0.7h-6.4V27.9z M81.8,31.1h0.5v0.8c0,0.4,0.2,0.6,0.6,0.6h2
	c0.6,0,0.8-0.1,0.9-0.5c0-0.1,0-0.1,0-0.2c0-0.2,0-0.3,0.1-0.4c0.2,0.1,0.3,0.1,0.5,0.2c0,0.2-0.1,0.3-0.1,0.6
	c-0.1,0.6-0.5,0.8-1.2,0.8h-2.4c-0.6,0-0.9-0.3-0.9-1V31.1z M83.4,30.9l0.4-0.2c0.2,0.2,0.5,0.5,1,1L84.4,32
	c-0.1-0.1-0.2-0.2-0.5-0.5C83.6,31.2,83.5,31,83.4,30.9 M84.2,25.5h1.4v-0.7h-1.5v-0.4h1.5v-0.7h0.5v0.7H88v0.4h-1.9v0.7h1.7v0.4
	h-1.7v0.8h2.1v0.4h-2.1v0.6h-0.5v-0.6h-1.5v-0.4h1.5v-0.8h-1.4V25.5z M86.9,31.2l0.4-0.2c0.2,0.3,0.6,0.8,1.1,1.4L88,32.7
	C87.7,32.2,87.3,31.7,86.9,31.2"/>
<path class="st4" d="M96.9,31.3l-0.1-0.6c0.2,0,0.4-0.1,0.6-0.2c0.2-0.1,0.4-0.1,0.6-0.2v-3.9h-1.1v-0.5H98v-2.5h0.5v2.5h1v0.5h-1
	v3.7c0.3-0.1,0.7-0.2,1-0.4c0,0.3,0,0.4,0,0.5C98.6,30.7,97.7,31,96.9,31.3 M102.9,23.6h0.5c0,0.7,0,1.4,0,2h2.4v0.5h-2.4
	c0.1,1.5,0.2,2.8,0.4,3.9c0.5-0.8,0.9-1.7,1.2-2.7l0.5,0.2c-0.5,1.3-1,2.4-1.5,3.2c0.3,1.1,0.6,1.6,1,1.7c0.2,0,0.2-0.1,0.3-0.4
	c0.1-0.3,0.1-0.7,0.2-1.4c0.2,0.1,0.3,0.2,0.5,0.2c-0.1,0.6-0.1,1.1-0.2,1.4c-0.1,0.5-0.3,0.7-0.7,0.7c-0.6,0.1-1.1-0.5-1.4-1.7
	c-0.4,0.6-1,1.1-1.6,1.7c-0.2-0.2-0.3-0.3-0.4-0.4c0.8-0.6,1.4-1.2,1.9-1.9c-0.2-0.9-0.4-2.4-0.5-4.5h-2.6v1.5h1.8
	c0,1.3,0,2.3-0.1,2.9c0,0.7-0.4,1.1-1.1,1.1h-0.6c0-0.1,0-0.3-0.1-0.5h0.6c0.4,0,0.7-0.2,0.7-0.7c0-0.4,0-1.2,0-2.3h-1.3
	c0,1.3-0.1,2.3-0.3,2.9c-0.2,0.6-0.5,1.3-1,2c-0.1-0.1-0.2-0.2-0.4-0.4c0.5-0.6,0.9-1.2,1-1.8c0.1-0.6,0.2-1.5,0.2-2.8v-2.4h3
	c0-0.2,0-0.6,0-1C102.9,24.2,102.9,23.9,102.9,23.6 M103.9,24.3l0.3-0.3c0.2,0.1,0.5,0.4,1,0.7c0.1,0.1,0.2,0.1,0.2,0.2l-0.3,0.4
	C104.7,25,104.4,24.7,103.9,24.3"/>
<path class="st4" d="M114.4,25.1h4.4c-0.1-0.2-0.3-0.5-0.5-0.9c-0.1-0.2-0.2-0.3-0.2-0.4l0.5-0.2c0.2,0.4,0.5,0.8,0.7,1.3l-0.4,0.2
	h4.4v0.5h-4.2v1.6h3.4v3.5c0,0.8-0.4,1.1-1.1,1.1h-1.1c0-0.1-0.1-0.3-0.1-0.5c0.1,0,0.4,0,0.7,0h0.4c0.5,0,0.8-0.2,0.8-0.8v-2.9
	h-2.9v5.3h-0.5v-5.3h-2.9V32h-0.5v-4.8h3.4v-1.6h-4.2V25.1z"/>
<path class="st4" d="M131.8,27.1h2.7c0.3-0.6,0.6-1.1,0.9-1.6l0.5,0.2c-0.3,0.5-0.5,0.9-0.8,1.4h1.5v0.4h-4.7V27.1z M132.8,29.9
	l0.4,0.2c-0.4,0.9-0.7,1.5-0.9,1.8l-0.4-0.2C132,31.5,132.4,30.8,132.8,29.9 M133.9,27.8h0.5v1h1.8v0.5h-1.8v2.5c0,0.7-0.3,1-0.9,1
	h-0.8c0-0.2,0-0.3-0.1-0.5h0.8c0.4,0,0.6-0.2,0.6-0.6v-2.5H132v-0.5h1.9V27.8z M133.7,23.7l0.5-0.2c0.2,0.4,0.3,0.8,0.5,1.2h1.6v0.5
	h-4.2v-0.5h2C133.9,24.3,133.8,24,133.7,23.7 M132.6,25.7l0.4-0.2c0.2,0.4,0.5,0.8,0.8,1.3l-0.4,0.2
	C133.1,26.5,132.8,26.1,132.6,25.7 M135.8,31.6c-0.2-0.4-0.5-0.9-0.9-1.5l0.4-0.3c0.2,0.2,0.5,0.6,0.7,1.1c0.1,0.1,0.2,0.2,0.2,0.3
	L135.8,31.6z M135.8,32.6c0.8-0.9,1.2-2.4,1.2-4.4v-3.7c1-0.1,2.2-0.2,3.5-0.4l0.2,0.5c-0.9,0.1-1.9,0.2-3.1,0.3v2.5h3.4v0.5h-1.3
	V33h-0.5v-5.1h-1.6v0.3c0,2.1-0.4,3.7-1.2,4.7C136.1,32.8,136,32.7,135.8,32.6"/>
<path class="st4" d="M151.3,24.1l0.5,0.1c0,0-0.1,0.1-0.1,0.2c-0.2,0.4-0.3,0.9-0.6,1.3h2.5v-2.1h0.5v2.1h3.6v0.6h-3.6v2.5h3.3v0.5
	h-3.3V32h4.1v0.5h-9V32h4.4v-2.7h-3.4v-0.5h3.4v-2.5H151c-0.4,0.7-0.8,1.3-1.3,2c-0.1-0.1-0.1-0.2-0.3-0.3c-0.1-0.1-0.1-0.1-0.2-0.2
	C150.1,26.8,150.8,25.6,151.3,24.1"/>
<path class="st4" d="M171.7,28.4l-0.3,0.4c-0.6-0.5-1-0.8-1.4-1.1c-0.7,0.6-1.6,1-2.9,1.4c-0.1-0.1-0.1-0.2-0.2-0.4
	c-0.1,0-0.1-0.1-0.1-0.1c2.3-0.7,3.6-1.7,4-3h-3.7v-0.5h3.8c0.1-0.3,0.1-0.8,0.1-1.5h0.5c0,0.5,0,1-0.1,1.5h4.1v0.5h-3.8
	c0.7,1.5,2.1,2.4,4.1,2.9c-0.1,0.1-0.2,0.2-0.3,0.5c-2.3-0.6-3.7-1.7-4.3-3.3c-0.2,0.7-0.5,1.2-1,1.7
	C170.7,27.6,171.2,28,171.7,28.4 M167.8,29.8l0.5,0.2c-0.2,0.7-0.5,1.5-0.9,2.4c-0.2-0.1-0.3-0.2-0.5-0.3
	C167.3,31.2,167.6,30.4,167.8,29.8 M169.2,29.6h0.5v1.9c-0.1,0.5,0.2,0.7,0.9,0.7h1.7c0.5,0,0.8-0.2,0.9-0.6c0-0.3,0.1-0.7,0.1-0.9
	c0,0,0.1,0,0.3,0.1c0.1,0,0.2,0.1,0.2,0.1c-0.1,0.4-0.1,0.8-0.2,1c-0.1,0.6-0.6,0.9-1.3,0.9h-2c-0.8,0-1.2-0.4-1.2-1.1V29.6z
	 M170.7,29.5l0.4-0.3c0.3,0.3,0.7,0.8,1.2,1.5l-0.5,0.3C171.4,30.5,171,30,170.7,29.5 M174.1,30l0.5-0.3c0.1,0.1,0.2,0.3,0.4,0.6
	c0.4,0.6,0.7,1,0.9,1.4l-0.5,0.2C175,31.3,174.5,30.6,174.1,30"/>
<path class="st4" d="M151.6,11.1l-1.2,0.3V8.7h0.2c0.4,0,0.5-0.3,0.5-0.3l0.4-1h-1.2V4.9h-1.5v2.5h-1.3v1.4h1.3v3.1l-1.5,0.4v1.5
	c0.5-0.2,1.1-0.3,1.5-0.5v3.6c0,0.3-0.2,0.6-0.5,0.6h-0.8v1.1h1.2c0.9,0,1.6-0.4,1.6-1.4v-4.3l0.3-0.1c0,0,0.2-0.1,0.2-0.1
	c0.1-0.1,0.2-0.3,0.2-0.3L151.6,11.1z"/>
<path class="st4" d="M156.6,17.3v-1.5h2.4c0.5,0,0.7-0.3,0.7-0.4l0.4-0.7h-3.5v-1.2h2.3c1,0,1-1,1-1v-1.2h0.4v-1.2h-0.4V9.2
	c0-1-1-1-1-1h-2.3v-1h2.8c0.3,0,0.5-0.1,0.6-0.3l0.3-0.8h-3.7V4.9h-1.5v1.2h-3.2v1.2h3.2v1h-3.2v1.1h3.2v1h-3.2v1.2h3.2v1h-3.2v1.1
	h3.2v3.7c-0.7-0.2-1.2-0.8-1.7-1.6c0.1-0.3,0.3-1,0.3-1.6h-1.2c0,1.5-0.7,3-1.7,3.8v0.8c0.9-0.3,1.8-1.2,2.2-1.7
	c0.5,0.9,1.3,1.6,2.6,1.6h4c0.5,0,0.6-0.4,0.6-0.4l0.4-0.8H156.6z M156.6,9.3h1.9v1h-1.9V9.3z M156.6,11.4h1.9v1h-1.9V11.4z"/>
<path class="st4" d="M171.8,8h-1.3c-0.8,0-1.1,0.7-1.1,1.2v6.1h1.5V9.3h3.4v5.9h1.4v-6c0-1.2-1.1-1.1-1.1-1.1h-1.3V6.5h1.8
	c0.4,0,0.5-0.2,0.6-0.4l0.3-0.9h-6.7v1.3h2.5V8z"/>
<rect x="167.4" y="4.9" class="st4" width="1.3" height="13"/>
<rect x="165.4" y="5.2" class="st4" width="1.3" height="12.7"/>
<path class="st4" d="M163.5,13c0,3.4-0.9,4.2-0.9,4.2v1.3c0,0,2.2-1,2.2-5.4V5h-1.3V13z"/>
<path class="st4" d="M173.2,12.7v-2.6h-1.4v1.3v1.4c0,2.3-0.7,3.9-2.7,4.9v0.9c1.9-0.4,3.1-1.8,3.5-2.8l0-0.1
	c1.2,2.6,3.3,2.9,3.3,2.9v-0.9C174.3,16.8,173.2,14.7,173.2,12.7"/>
<path class="st4" d="M126.9,13.7c-0.4,2.7-1.3,3.2-2.7,3.2c-1.2,0-2.7-0.5-2.3-3.2l1.3-8.8h-3.1l-1.3,8.5c-0.6,4,2.2,5.2,5.3,5.2
	c3.2,0,5.4-1.1,6-5.1l1.3-8.6h-1.7c-1.6,0-1.6,1.5-1.6,1.5L126.9,13.7z"/>
<path class="st4" d="M93.6,8.1c-0.2,1.3,0.3,2.5,1.6,3.2l3.7,1.9c0.8,0.4,1.4,1.1,1.1,2.1c-0.3,1-1.1,1.6-3.2,1.6h-4.2l-0.3,1.7h4.3
	c4.2,0,6.2-1.7,6.5-3.9c0.2-1.2-0.6-2.3-2-3L98,10c-0.8-0.4-1.4-0.9-1.3-1.7c0.2-1.1,1-1.7,2.4-1.7h3.7c0.3,0,0.7-0.1,0.8-0.5
	l0.5-1.2h-5.6C95.5,5,93.9,6.3,93.6,8.1"/>
<path class="st4" d="M73.4,18.6h3.1L78.6,5h-1.8c0,0-0.6,0-1,0.4c-0.4,0.4-0.5,1-0.5,1L73.4,18.6z"/>
<path class="st4" d="M145.1,5h-1.7c-1.5,0-1.7,1.3-1.7,1.3l-1.1,7.6L136.5,5h-2.6l-2.1,13.7h3.1l1.4-9l4.2,9h2.6L145.1,5z"/>
<path class="st4" d="M67,6.6h2.2L68.1,14c-0.4,2.4-1.3,2.9-3.1,2.9H62l-0.3,1.7h3.6c3.3,0,5.3-1.1,5.8-4.6l1.4-9.2h-5.4L67,6.6z"/>
<path class="st4" d="M113.6,10.6h-4.9l0.9-5.7h-3.1l-2.1,13.7h3.1l0.9-6.2h4.9l-0.9,6.2h3.1L117.6,5H116c-1.6,0-1.7,1.8-1.7,1.8
	L113.6,10.6z"/>
<path class="st4" d="M84,5L84,5c-2.4,0-2.7,1.9-2.7,1.9l-1.8,11.7h10.1l0.3-1.7h-7l0.7-4.5h6.3l0.3-1.7h-6.3l0.5-3.2
	c0,0,0.1-0.8,0.9-0.8h5.4c0.6,0,0.8-0.5,0.8-0.5L92,5H84z"/>
</svg>
