<?xml version="1.0" encoding="utf-8"?>
<!-- Generator: Adobe Illustrator 22.0.0, SVG Export Plug-In . SVG Version: 6.00 Build 0)  -->
<svg version="1.1" id="图层_1" xmlns="http://www.w3.org/2000/svg" xmlns:xlink="http://www.w3.org/1999/xlink" x="0px" y="0px"
	 viewBox="0 0 1024 1024" style="enable-background:new 0 0 1024 1024;" xml:space="preserve">
<style type="text/css">
	.st0{display:none;}
	.st1{display:inline;}
	.st2{fill:#333333;}
	.st3{fill-rule:evenodd;clip-rule:evenodd;fill:#333333;}
	.st4{fill:#D93A15;}
	.st5{fill:#1694C9;}
	.st6{fill:#FFFFFF;}
	.st7{fill:#103771;}
</style>
<g class="st0">
	<g class="st1">
		<path class="st2" d="M930.1,315.5v-5.8c-40.3-40.4-97.9-28.9-138.3,11.5L492.3,627.2c-5.8,0-5.8,5.8-5.8,11.5L457.7,760
			c-5.8,11.5,0,17.3,5.8,23.1c5.8,5.8,28.8,0,28.8,0L619,754.2c5.8,0,11.5-5.8,17.3-5.8l293.8-300.2
			C970.4,407.9,970.4,355.9,930.1,315.5z M630.5,800.4l-184.3,40.4c-11.5,0-23-5.8-28.8-17.3c-5.8-11.6-11.5-23.1-5.8-28.9
			L452,609.9c0-5.8,5.8-17.3,11.5-17.3l362.9-369.4l3.2,3.8v-43.6c0-63.5,1.9-108.9-87.2-108.9H176c-94.6,0-108.9,41.3-108.9,130.7
			V837c0,92.1,35.5,108.9,130.7,108.9h522.9c89,0,108.9-28.1,108.9-108.9V619.2l-176,169.7C653.6,794.6,642.1,800.4,630.5,800.4z
			 M336.8,402.1l-74.9,69.3c-11.5,11.5-28.8,11.5-40.3,0c-11.5-11.5-11.5-28.9,0-40.4l92.2-92.4c11.5-11.5,28.8-11.5,40.3,0l69.1,75
			l167.1-167.4c11.5-11.5,28.8-11.5,34.6,5.8c11.5,11.5,11.5,28.8,5.8,34.6L440.4,471.4c-5.8,5.8-11.5,5.8-17.3,5.8
			c-5.8,0-17.3,0-23-5.8L336.8,402.1z"/>
	</g>
</g>
<g class="st0">
	<g class="st1">
		<path class="st3" d="M371.9,66.4H161.7c-51.6,0-93.4,41.8-93.4,93.4v210.2c0,51.6,41.8,93.4,93.4,93.4h210.2
			c51.6,0,93.4-41.8,93.4-93.4V159.8C465.4,108.2,423.5,66.4,371.9,66.4z M371.9,557H161.7c-51.6,0-93.4,41.8-93.4,93.4v210.3
			c0,51.6,41.8,93.4,93.4,93.4h210.2c51.6,0,93.4-41.8,93.4-93.4V650.4C465.4,598.8,423.5,557,371.9,557z M862.5,66.4H652.2
			c-51.6,0-93.4,41.8-93.4,93.4v210.2c0,51.6,41.8,93.4,93.4,93.4h210.2c51.6,0,93.4-41.8,93.4-93.4V159.8
			C955.9,108.2,914.1,66.4,862.5,66.4z M862.5,557H652.2c-51.6,0-93.4,41.8-93.4,93.4v210.3c0,51.6,41.8,93.4,93.4,93.4h210.2
			c51.6,0,93.4-41.8,93.4-93.4V650.4C955.9,598.8,914.1,557,862.5,557z"/>
	</g>
</g>
<path class="st4" d="M360,420.7c0,0-114.4,22.9-225.1,22.9h-21.1c14.6,0,35,7.3,47.7,16.7c9.5,7.1,15.4,10.6,38.1,25.9
	c4.8,3.2,10.6,6.5,16.9,9.7c0.6,0,1.3,0,1.9,0c53.7,0,76.4-5.6,76.4-5.6c11.4-2.4,26.8-7.8,39.6-22.9l31.4-36.9
	C370.7,425.2,368.6,418.4,360,420.7"/>
<path class="st5" d="M108.4,479.5c-6.9-6.5-15.8-15.4-21.3-21c9.2,9.4,30,30.2,59.1,56.3C182.7,547.5,214,569,214,569
	c9.4,5,25.5,7.4,37.4-3.2l28-27.4c6.3-5.2,6.6-12.8-1.6-16.5c0,0-34.8-12.4-61.3-26c-31.4,0-57.6,0.1-69.9,0.1
	C124.6,496,111.8,482.7,108.4,479.5"/>
<path class="st6" d="M161.5,460.3c-12.7-9.4-33.1-16.7-47.7-16.7H85.6c-0.3,0-0.7,0-1,0c-2,0.2-4.1,1.1-4.9,2.8
	c-0.1,0.2-0.1,0.3-0.2,0.5c0,0,0,0,0,0.1c-0.2,0.9-0.1,2,0.4,3.2c0,0,0,0,0,0.1c0.4,0.9,1,1.8,1.8,2.8c0,0,1.8,1.9,5.3,5.5
	c5.5,5.5,14.4,14.4,21.3,21c3.4,3.2,16.2,16.5,38.2,16.5c12.3,0,38.4-0.1,69.9-0.1c-6.3-3.2-12.1-6.5-16.9-9.7
	C176.9,470.9,171,467.4,161.5,460.3"/>
<path class="st7" d="M161.5,460.3c-12.7-9.4-33.1-16.7-47.7-16.7H85.6c-0.3,0-0.7,0-1,0c-2,0.2-4.1,1.1-4.9,2.8
	c-0.1,0.2-0.1,0.3-0.2,0.5c0,0,0,0,0,0.1c-0.2,0.9-0.1,2,0.4,3.2c0,0,0,0,0,0.1c0.4,0.9,1,1.8,1.8,2.8c0,0,1.8,1.9,5.3,5.5
	c5.5,5.5,14.4,14.4,21.3,21c3.4,3.2,16.2,16.5,38.2,16.5c12.3,0,38.4-0.1,69.9-0.1c-6.3-3.2-12.1-6.5-16.9-9.7
	C176.9,470.9,171,467.4,161.5,460.3"/>
<path class="st6" d="M404.1,553.9c-0.4-0.2-0.9-0.6-1.5-1.1c-3.1-2.5-5.5-4.2-7.2-5.3c-1.5,3.2-5,6.1-10.7,8.8
	c-0.4-0.7-0.9-1.5-1.5-2.2c5.9-2.2,9.4-5.2,10.5-8.8h-9.9v-2.2h10.5c0.4-1.6,0.6-3.5,0.6-5.7h-6.1c-0.9,1.5-2,2.8-3.5,4.1
	c-0.4-0.4-0.9-0.9-1.7-1.5c3.1-2.8,5.2-5.9,6.4-9.2l2,0.6c-0.2,0.6-0.6,1.4-1.1,2.4c-0.4,0.7-0.6,1.3-0.7,1.7h14.2v2h-7.2
	c0,2.2-0.1,4.1-0.4,5.7h9v2.2h-9.6v0.2c-0.1,0-0.2,0.1-0.2,0.2c0.4,0.2,0.9,0.6,1.7,1.1c2.2,1.4,4.8,3.1,7.7,5.3L404.1,553.9z
	 M390.7,555.6h29.8v19.5h-2.4v-2h-25v2h-2.4V555.6z M393.1,563.3h25v-5.5h-25V563.3z M393.1,570.9h25v-5.3h-25V570.9z M408.5,534.8
	h16.4v16.6h-16.4V534.8z M410.9,549.1h11.6V537h-11.6V549.1z"/>
<path class="st6" d="M475,565.7l2,1.3c-1.2,1.8-3.1,4.2-5.5,7c-0.4-0.4-1-0.9-2-1.7C471.1,570.7,472.9,568.5,475,565.7 M472.2,540.1
	h8.3v-3.5h-9.4v-1.8h9.4v-3.5h2.4v3.5h7.2v1.8h-7.2v3.5h6.6v1.7h-6.6v3.7h7.4v1.8h-7.4v2.8h-2.4v-2.8H470v-1.8h10.5v-3.7h-8.3V540.1
	z M473.5,551.2h34.1v12.5h-34.3v-1.8H505v-3.5h-30v-1.8h30V553h-31.5V551.2z M480.9,566.1h2.6v3.7c-0.1,1.8,0.9,2.7,2.9,2.6h9.9
	c2.7,0.1,4.1-0.6,4.2-2.2c0-0.2,0.1-0.5,0.2-0.7c0.1-0.7,0.2-1.3,0.4-1.8c0.9,0.4,1.7,0.6,2.4,0.7c-0.1,0.7-0.4,1.6-0.7,2.6
	c-0.5,2.6-2.5,3.8-6.1,3.7h-11.6c-2.9,0.1-4.4-1.4-4.2-4.6V566.1z M488.6,565.3l1.8-1.1c1,0.9,2.6,2.4,4.8,4.6l-1.8,1.3
	c-0.4-0.4-1.2-1.2-2.4-2.4C489.9,566.5,489.1,565.7,488.6,565.3 M492.7,540.1h6.8v-3.5h-7.4v-1.8h7.4v-3.5h2.4v3.5h9.4v1.8h-9.4v3.5
	h8.3v1.7h-8.3v3.7H512v1.8h-10.1v2.8h-2.4v-2.8h-7.4v-1.8h7.4v-3.7h-6.8V540.1z M505.8,566.4l2-1.1c1.2,1.6,3.1,3.8,5.5,6.6l-2,1.5
	C509.8,571.5,508,569.1,505.8,566.4"/>
<path class="st6" d="M555.1,567.2l-0.6-2.6c0.7-0.1,1.8-0.4,3.1-0.9c1.2-0.4,2.1-0.6,2.8-0.7v-18h-5.3v-2.2h5.3v-11.6h2.4v11.6h5
	v2.2h-5v17.3c1.7-0.6,3.4-1.2,5-1.7c0,1.2,0.1,2,0.2,2.4C563.2,564.4,558.9,565.8,555.1,567.2 M584.6,531.1h2.6
	c0,3.4,0.1,6.6,0.2,9.4h11.8v2.2h-11.8c0.4,7.1,1,13.2,2,18.2c2.3-3.7,4.3-7.9,5.9-12.5l2.4,0.9c-2.5,6.3-5,11.2-7.6,14.9
	c1.4,5,2.9,7.6,4.8,7.7c0.7,0,1.2-0.7,1.5-2c0.4-1.3,0.7-3.5,0.9-6.4c0.9,0.5,1.7,0.8,2.4,0.9c-0.4,2.9-0.7,5.1-1.1,6.4
	c-0.5,2.3-1.6,3.5-3.3,3.5c-2.9,0.2-5.3-2.3-7-7.7c-2.2,2.6-4.9,5.2-7.9,7.9c-1-1-1.7-1.6-2-1.8c3.7-2.8,6.8-5.8,9.2-9
	c-1.2-4.2-2.1-11.2-2.6-21h-12.5v7.2h8.8c0,6.3-0.1,10.8-0.4,13.6c0,3.3-1.7,5-5.2,5.2H573c0-0.5-0.2-1.3-0.6-2.4h2.9
	c2.2,0.1,3.3-0.9,3.3-3.1c0.1-1.8,0.2-5.5,0.2-10.9h-6.4c-0.1,6.1-0.6,10.7-1.3,13.6c-0.9,2.8-2.5,5.9-5,9.2c-0.5-0.6-1.2-1.2-2-1.7
	c2.6-2.9,4.2-5.8,4.8-8.5c0.7-2.7,1.1-7.1,1.1-13.3v-11.2h14.9c-0.1-1-0.2-2.6-0.2-4.8C584.6,533.7,584.6,532.2,584.6,531.1
	 M589.5,534.2l1.5-1.5c1.1,0.6,2.7,1.8,4.8,3.5c0.5,0.4,0.9,0.7,1.1,0.9l-1.7,1.8C593.5,537.5,591.6,535.9,589.5,534.2"/>
<path class="st6" d="M641.1,538.1h21.7c-0.5-1-1.2-2.3-2.2-4.1c-0.5-0.9-0.9-1.5-1.1-2l2.4-1.1c1.1,1.7,2.3,3.7,3.7,6.1l-2.2,1.1
	h21.4v2.4h-20.6v7.4h16.8v16.6c0.1,3.6-1.7,5.3-5.5,5.3h-5.5c-0.1-0.6-0.3-1.4-0.6-2.4c0.7,0,1.8,0.1,3.3,0.2h2
	c2.6,0.1,3.8-1.1,3.7-3.7v-13.4h-14.2v24.9h-2.6v-24.9h-14v20.1h-2.6v-22.6h16.6v-7.4h-20.4V538.1z"/>
<path class="st6" d="M726.3,547.3h13.1c1.5-2.6,2.9-5.1,4.2-7.6l2.2,1.1c-1.2,2.2-2.5,4.4-3.9,6.4h7.4v2h-23V547.3z M731.1,560.7
	l2,0.9c-1.8,4-3.4,6.9-4.6,8.5l-2-0.7C727.5,567.8,729,564.9,731.1,560.7 M736.8,550.8h2.4v4.8h8.8v2.2h-8.8v11.8
	c0.1,3.1-1.4,4.7-4.6,4.8h-4.1c0-0.7-0.1-1.5-0.4-2.4h3.7c2,0,2.9-0.9,2.9-2.6v-11.6h-9.4v-2.2h9.4V550.8z M735.5,531.6l2.4-0.7
	c0.7,1.7,1.5,3.6,2.2,5.5h7.9v2.2h-20.4v-2.2h9.9C736.8,534.5,736.1,532.9,735.5,531.6 M730,540.9l2-1.1c1.2,1.7,2.5,3.7,3.7,5.9
	l-2,1.1C732.5,544.5,731.2,542.6,730,540.9 M745.8,568.5c-1.1-2-2.6-4.2-4.6-6.8l1.8-1.3c1,1.1,2.2,2.8,3.7,5.2
	c0.5,0.6,0.9,1.1,1.1,1.5L745.8,568.5z M746,573.1c4.2-4.2,6.1-11,5.9-20.6V535c5-0.2,10.7-0.8,16.9-1.7l0.7,2.4
	c-4.4,0.6-9.5,1.1-15.3,1.5V549h16.6v2.2h-6.3v23.9H762v-23.9h-7.7v1.5c0.2,9.8-1.8,17.2-6.1,22.1
	C747.5,574.2,746.8,573.7,746,573.1"/>
<path class="st6" d="M822.2,533.5l2.6,0.6c-0.1,0.1-0.2,0.4-0.4,0.7c-0.7,2.1-1.7,4.1-2.8,6.1h12.2v-9.9h2.6v9.9h17.9v2.6h-17.9V555
	h16.4v2.4h-16.4v12.7h20.3v2.4h-44.4v-2.4h21.5v-12.7h-16.6V555h16.6v-11.6h-13.4c-1.8,3.2-3.9,6.3-6.3,9.2
	c-0.2-0.4-0.7-0.8-1.3-1.3c-0.4-0.4-0.6-0.6-0.7-0.7C816.3,546.1,819.7,540.4,822.2,533.5"/>
<path class="st6" d="M922,553.4l-1.7,1.8c-2.8-2.2-5.1-3.9-6.8-5c-3.3,2.6-8,4.8-14,6.6c-0.2-0.5-0.6-1.2-1.1-2
	c-0.2-0.1-0.4-0.2-0.4-0.4c11.2-3.1,17.7-7.8,19.5-14.2h-18v-2.2h18.8c0.4-1.5,0.6-3.8,0.6-7h2.6c0,2.5-0.2,4.8-0.6,7h19.9v2.2
	h-18.6c3.4,6.9,10.2,11.4,20.3,13.4c-0.4,0.4-0.9,1.2-1.5,2.4c-11-2.8-18-8-21-15.5c-1,3.1-2.6,5.8-4.8,8.1
	C917.2,549.9,919.5,551.4,922,553.4 M902.9,559.8l2.4,0.9c-1.1,3.4-2.6,7.1-4.6,11.1c-0.9-0.5-1.7-0.9-2.4-1.3
	C900.5,566.4,902,562.9,902.9,559.8 M909.7,559.1h2.6v9c-0.2,2.3,1.2,3.4,4.2,3.3h8.3c2.6,0.1,4.1-0.9,4.6-2.9
	c0.2-1.6,0.5-3.1,0.7-4.4c0.2,0,0.7,0.1,1.3,0.4c0.5,0.1,0.9,0.2,1.1,0.4c-0.3,2-0.6,3.6-0.9,4.8c-0.6,2.8-2.8,4.2-6.4,4.1h-9.6
	c-4.1,0.1-6-1.7-5.9-5.3V559.1z M917.1,558.7l1.8-1.5c1.5,1.6,3.4,3.9,5.7,7l-2.2,1.5C920.6,563.1,918.8,560.8,917.1,558.7
	 M933.8,560.9l2.2-1.3c0.5,0.6,1.2,1.5,2,2.8c2,2.7,3.4,4.9,4.4,6.6l-2.4,0.9C938.1,567,936,564,933.8,560.9"/>
<path class="st6" d="M823.3,472.5l-5.9,1.6v-12.7h1.1c2,0,2.6-1.6,2.6-1.6l2.2-4.9h-5.9v-11.5h-7.3v11.5h-6.5v6.5h6.5v14.3l-7.6,2.1
	v7.1c2.6-0.8,5.4-1.5,7.6-2.2v16.9c0,1.6-1,2.8-2.4,2.8h-3.9v4.9h5.8c4.4,0,7.8-1.8,7.8-6.6v-19.9l1.5-0.5c0,0,0.7-0.3,1.2-0.7
	c0.6-0.5,0.9-1.4,0.9-1.4L823.3,472.5z"/>
<path class="st6" d="M848,501.7v-6.9h11.6c2.6,0,3.3-1.3,3.6-1.9l1.7-3.3h-17v-5.5h11.4c4.9,0,4.9-4.5,4.9-4.5v-5.5h2.2v-5.4h-2.2
	v-5.3c0-4.8-4.8-4.5-4.8-4.5H848v-4.6h13.9c1.5,0,2.3-0.5,2.8-1.6l1.6-3.8H848v-5.4h-7.5v5.4h-15.9v5.4h15.9v4.6h-15.5v5.1h15.5v4.7
	h-15.5v5.4h15.5v4.9h-15.5v5.2h15.5v17.3c-3.4-1-6.1-3.6-8.1-7.7c0.5-1.6,1.4-4.8,1.4-7.7h-6.1c0,7.1-3.4,14-8.5,17.9v3.9
	c4.6-1.4,9.1-5.4,10.7-8.1c2.6,4.1,6.5,7.4,12.8,7.4h19.7c2.3,0,3-1.7,3-1.7l1.9-3.7H848z M848,464h9.3v4.7H848V464z M848,474.1h9.3
	v4.9H848V474.1z"/>
<path class="st6" d="M922.8,458.1h-6.6c-3.9,0-5.3,3.2-5.3,5.4v28.4h7.4v-27.8h16.8v27.5h6.7v-28.3c0-5.6-5.6-5.2-5.6-5.2h-6.6V451
	h9c1.9,0,2.7-1,3-1.8l1.6-4.4h-32.9v6.3h12.5V458.1z"/>
<rect x="901" y="443.6" class="st6" width="6.4" height="61"/>
<rect x="891.4" y="444.7" class="st6" width="6.1" height="59.4"/>
<path class="st6" d="M881.8,481.5c0,15.9-4.5,19.8-4.5,19.8v6.1c0,0,10.9-4.7,10.9-25.4v-38.1h-6.4V481.5z"/>
<path class="st6" d="M929.7,480.2v-12.3h-6.9v6.3v6.5c0,10.9-3.6,18.4-13.4,23v4.3c9.3-2,15.2-8.3,17.4-13l0.2-0.4
	c6,12.4,16.1,13.4,16.1,13.4v-4.3C935,499.1,929.7,489.2,929.7,480.2"/>
<path class="st6" d="M702.4,484.7c-2,12.6-6.2,15.2-13.2,15.2c-6.1,0-13.3-2.6-11.3-15.2l6.5-41h-15.4l-6.3,39.8
	c-3,18.8,10.9,24.2,25.9,24.2c15.6,0,26.3-5.1,29.3-23.9l6.4-40.2h-8.4c-7.6,0-8.1,6.8-8.1,6.8L702.4,484.7z"/>
<path class="st6" d="M538.9,458.4c-1,6.1,1.6,11.8,7.7,15l18.1,8.8c4.1,2.1,6.6,5.4,5.4,9.9c-1.3,4.8-5.3,7.6-15.5,7.6H534l-1.3,8
	h21.3c20.5,0,30.4-7.8,32-18.2c0.9-5.8-3-10.9-9.7-14l-15.9-8.2c-3.7-1.9-6.9-4.3-6.4-7.9c0.7-5.2,4.9-7.9,11.9-7.9h18.3
	c1.7,0,3.3-0.7,4-2.2l2.6-5.6h-27.6C547.9,443.7,540.3,450.2,538.9,458.4"/>
<path class="st6" d="M439.9,507.7h15.4l10.1-64h-9c0,0-2.9,0.1-5,2c-2.1,1.9-2.4,4.7-2.4,4.7L439.9,507.7z"/>
<path class="st6" d="M791.7,443.7h-8.2c-7.5,0-8.1,6.1-8.1,6.1l-5.6,35.8l-20.4-41.9h-12.8l-10.1,64h15.4l6.6-42.1l20.5,42.1h12.6
	L791.7,443.7z"/>
<path class="st6" d="M408.1,451.3h11l-5.5,34.8c-1.7,11-6.2,13.8-15.4,13.8h-14.4l-1.3,8h17.8c16,0,26-5.1,28.6-21.5l6.8-43h-26.4
	L408.1,451.3z"/>
<path class="st6" d="M637.1,470.4h-24l4.2-26.7h-15.4l-10.1,64h15.4l4.6-29.3h24l-4.6,29.3h15.4l10.1-64h-8.1c-8,0-8.6,8.3-8.6,8.3
	L637.1,470.4z"/>
<path class="st6" d="M491.7,443.7L491.7,443.7c-12,0-13.4,9.1-13.4,9.1l-8.7,54.9h49.7l1.3-8.1h-34.4l3.4-21.2h31.2l1.3-8h-31.2
	l2.3-14.8c0,0,0.6-3.7,4.6-3.7h26.4c3,0,4.1-2.2,4.1-2.2l2.7-5.9H491.7z"/>
</svg>
